<svg width="149" height="96" viewBox="0 0 149 96" fill="none" xmlns="http://www.w3.org/2000/svg">
<g clip-path="url(#clip0)">
<path d="M96.6667 10.7043L85.3333 17.3942L68 7.35933L79.3333 0.669434L96.6667 10.7043Z" fill="#2B215F"/>
<path d="M77.667 8.36304L74.667 6.69056L78.3337 4.68359L81.3336 6.35607L77.667 8.36304Z" fill="#2B215F"/>
<path d="M86.667 13.3806L83.667 11.7081L87.0003 9.70117L90.0003 11.3736L86.667 13.3806Z" fill="#2B215F"/>
<path d="M90.6663 20.7385L96.6663 17.3935V10.7036L85.333 17.3935L88.9997 19.735C89.6663 19.735 90.333 20.404 90.6663 20.7385Z" fill="#2B215F"/>
<path d="M4.33316 35.1221C-1.00017 38.1325 -0.333505 43.4844 5.66649 47.1639L16.3332 53.5193C22.3332 57.1987 31.6665 57.5332 36.9998 54.5228L89.6665 24.0837C91.6665 23.0803 91.3332 21.0733 88.9998 19.7353L64.3332 5.35204C61.9998 4.01406 58.6665 4.01406 56.6665 5.01754L4.33316 35.1221Z" fill="#2B215F"/>
<path d="M28 56.8645C23.6667 56.8645 19.3333 55.861 16 53.8541L5.33333 47.8331C2 45.8262 0 43.1502 0 40.4743C0 38.1328 1.33333 36.1258 4 34.7878L56.6667 4.34883C59 3.01085 62.6667 3.34534 65 4.68332L89.6667 19.0666C91 19.7356 92 21.0736 92 22.0771C92 23.0805 91.3333 24.084 90.3333 24.753L37.6667 55.192C35 56.1955 31.6667 56.8645 28 56.8645ZM4.66667 35.7913C2.66667 37.1293 1.33333 38.4673 1.33333 40.4743C1.33333 42.8157 3 44.8227 6 46.4952L16.6667 52.8506C22.6667 56.1955 31.6667 56.53 36.6667 53.8541L89.3333 23.415C89.6667 23.0805 90.3333 22.746 90.3333 22.0771C90.3333 21.4081 89.6667 20.7391 88.6667 20.0701L64 5.68681C62 4.34883 58.6667 4.34883 57 5.35231L4.66667 35.7913Z" fill="white"/>
<path d="M91.0003 22.0767C91.0003 22.7456 90.667 23.4146 89.667 24.0836L37.0003 54.5227C31.667 57.1986 22.3337 56.8641 16.3337 53.5192L5.66699 47.4983C2.33366 45.4913 0.666992 43.1498 0.666992 40.8084C0.666992 40.8084 0.666992 49.8397 0.666992 51.5122C0.666992 53.8537 2.33366 56.1951 5.66699 58.2021L16.3337 64.223C22.3337 67.9025 31.667 68.2369 37.0003 65.2265L89.667 34.7875C90.667 34.1185 91.0003 33.4495 91.0003 32.7805C91.0003 31.777 91.0003 22.0767 91.0003 22.0767Z" fill="#2B215F"/>
<path d="M28 67.9022C23.6667 67.9022 19.3333 66.8987 16 64.8918L5.33333 58.8709C2 56.8639 0 54.1879 0 51.512C0 49.505 0 40.8081 0 40.8081C0 40.4737 0 40.1392 0.333333 40.1392C0.666667 40.1392 0.666667 40.1392 1 40.1392C1.33333 40.1392 1.33333 40.4737 1.33333 40.8081C1.33333 43.1496 3 45.1566 6 46.8291L16.6667 52.85C22.6667 56.1949 31.6667 56.5294 36.6667 53.8534L89.3333 23.4144C89.6667 23.0799 90 22.4109 90 22.0764C90 21.7419 90 21.7419 90.3333 21.4075C90.3333 21.4075 90.6667 21.073 91 21.4075C91.3333 21.4075 91.6667 21.7419 91.6667 22.0764C91.6667 22.0764 91.6667 32.1113 91.6667 32.7803C91.6667 33.7838 91 34.7872 90 35.4562L37.3333 65.8953C35 67.2332 31.6667 67.9022 28 67.9022ZM1.33333 44.4876C1.33333 47.1636 1.33333 50.174 1.33333 51.512C1.33333 53.8534 3 55.8604 6 57.5329L16.6667 63.5538C22.6667 66.8987 31.6667 67.2332 36.6667 64.5573L89.3333 34.1183C89.6667 33.7838 90.3333 33.4493 90.3333 32.7803C90.3333 32.1113 90.3333 27.4284 90.3333 24.4179H90L37.3333 54.8569C32 57.8674 22.3333 57.5329 16 53.8534L5.33333 47.8325C3.66667 46.8291 2.33333 45.8256 1.33333 44.4876Z" fill="white"/>
<path d="M24.3333 46.1609C24.6667 47.8334 22.3333 49.1713 19 49.1713C16 49.1713 13 47.4989 13 45.4919C13 43.4849 15 42.4814 18.3333 42.4814C21.6667 42.8159 24.3333 44.1539 24.3333 46.1609Z" fill="#2B215F"/>
<path d="M19.667 49.8399H19.3337C15.667 49.8399 13.0003 47.8329 12.667 45.8259C12.667 45.157 12.667 44.1535 13.3337 43.4845C14.3337 42.481 16.3337 41.812 18.667 41.812C22.3337 41.812 25.0003 43.819 25.3337 45.8259C25.3337 46.4949 25.3337 47.4984 24.667 48.1674C23.3337 49.1709 21.667 49.8399 19.667 49.8399ZM18.0003 43.15C16.3337 43.15 15.0003 43.4845 14.3337 44.488C14.0003 44.8225 14.0003 45.157 14.0003 45.4915C14.0003 46.8294 16.3337 48.1674 19.3337 48.5019C21.0003 48.5019 22.667 48.1674 23.3337 47.1639C23.667 46.8294 23.667 46.4949 23.667 46.1604C23.667 44.8225 21.3337 43.4845 18.3337 43.15H18.0003Z" fill="white"/>
<path d="M59.6668 60.8773C57.6668 61.8808 58.0001 63.8878 60.3334 65.2258L85.0001 79.609C87.3334 80.947 90.6667 80.947 92.6667 79.9435L145.333 49.5045C150.667 46.4941 150 41.1421 144 37.4627L133.333 31.4418C127.333 27.7623 118 27.4279 112.667 30.4383L59.6668 60.8773Z" fill="#2B215F"/>
<path d="M88.9997 81.2821C87.333 81.2821 85.6663 80.9476 84.333 79.9441L59.6663 65.5608C58.333 64.8918 57.333 63.5538 57.333 62.5504C57.333 61.5469 57.9997 60.5434 58.9997 59.8744L111.666 29.4354C117 26.4249 126.666 26.7594 133 30.4389L143.666 36.4598C147 38.4667 149 41.1427 149 43.8187C149 46.1601 147.666 48.1671 145 49.5051L92.6663 80.2786C91.6663 80.9476 90.333 81.2821 88.9997 81.2821ZM59.9997 61.5469C59.6663 61.8814 58.9997 62.2159 58.9997 62.8849C58.9997 63.5538 59.6663 64.2228 60.6663 64.8918L85.333 79.2751C87.333 80.2786 90.6663 80.6131 92.333 79.6096L145 49.1706C147 47.8326 148.333 46.4946 148.333 44.4876C148.333 42.1462 146.666 40.1392 143.666 38.4667L133 32.4458C127 29.1009 118 28.7664 113 31.4423L59.9997 61.5469Z" fill="white"/>
<path d="M124.665 38.4675C124.332 36.795 126.665 35.457 129.999 35.457C132.999 35.457 135.999 37.1295 135.999 39.1365C136.332 40.8089 133.999 42.1469 130.665 42.1469C127.665 41.8124 124.999 40.4745 124.665 38.4675Z" fill="#2B215F"/>
<path d="M130.999 42.8155H130.666C126.999 42.8155 124.332 40.8085 123.999 38.8015C123.999 38.1325 123.999 37.1291 124.666 36.4601C125.666 35.4566 127.666 34.7876 129.999 34.7876C133.666 34.7876 136.332 36.7946 136.666 38.8015C136.666 39.4705 136.666 40.474 135.999 41.143C134.999 42.1465 133.332 42.8155 130.999 42.8155ZM129.666 36.1256C127.999 36.1256 126.666 36.4601 125.999 37.4636C125.666 37.7981 125.666 38.1325 125.666 38.467C125.666 39.805 127.999 41.143 130.999 41.4775C132.666 41.4775 134.332 41.143 134.999 40.1395C135.332 39.805 135.332 39.4705 135.332 39.136C135.332 37.7981 132.999 36.4601 129.999 36.1256C129.666 36.1256 129.666 36.1256 129.666 36.1256Z" fill="white"/>
<path d="M148.333 44.1538C148.333 46.1608 147 47.8333 144.667 49.1712L92 79.6103C90 80.6137 86.6667 80.6137 84.3333 79.2758L60 65.227C58.6667 64.558 58 63.5545 58 62.8855C58 62.8855 58 72.9204 58 73.5893C58 74.5928 58.6667 75.2618 60 75.9308L84.6667 90.3141C87 91.6521 90.3333 91.6521 92.3333 90.6486L145 60.2096C147.333 58.8716 148.667 56.8646 148.667 55.1921C148.333 53.8542 148.333 44.1538 148.333 44.1538Z" fill="#2B215F"/>
<path d="M88.1179 92.8C86.4513 92.8 83.8437 91.4035 82.5104 90.4L59.2792 76.8C57.9459 76.131 57.333 74.2579 57.333 73.2544C57.333 72.5854 57.333 62.5506 57.333 62.5506C57.333 62.2161 57.6663 61.8816 57.6663 61.8816C57.9997 61.8816 57.9997 61.8816 58.333 61.8816C58.6663 61.8816 58.9997 62.4083 58.9997 62.7428C58.9997 63.4118 59.2792 63.2 60.0803 64L84.9136 78.4C86.9136 79.4035 89.9997 80.2788 91.6663 79.2753L144.333 48.8363C146.333 47.4983 147.333 46.1603 147.666 44.1534C147.666 43.8189 148 43.4844 148.333 43.4844C148.666 43.4844 149 43.8189 149 44.1534C149 44.1534 149 53.8537 149 54.8572C149 57.1987 148.462 59.462 145.795 60.8L92.9244 92C92.2577 92.669 89.4513 92.8 88.1179 92.8ZM58.9997 65.2265C58.9997 68.237 58.9997 72.9199 58.9997 73.5889C58.9997 74.2579 59.6663 74.9269 60.6663 75.5959L85.333 89.9791C87.333 91.3171 90.6663 91.3171 92.333 90.3136L145 59.8746C147 58.5366 147.397 57.207 147.397 55.2C147.397 54.531 147.397 52.276 147.397 49.6C146.596 49.6 147 49.5053 146 50.1743L92.6663 80.2788C90.333 81.6168 86.6663 81.2823 84.333 79.9443L59.6663 65.561C59.333 65.561 59.333 65.561 58.9997 65.2265Z" fill="white"/>
<path d="M66.3333 88.6413L49 78.6064V85.2963L66.3333 95.3312V88.6413Z" fill="#2B215F"/>
</g>
<defs>
<clipPath id="clip0">
<rect width="149" height="96" fill="white"/>
</clipPath>
</defs>
</svg>
