<svg width="121" height="97" viewBox="0 0 121 97" fill="none" xmlns="http://www.w3.org/2000/svg">
<g clip-path="url(#clip0)">
<path d="M67.1326 61.3895L34.9201 43.0525C33.5666 42.2552 32.2131 43.0525 32.2131 44.9128C32.2131 45.4443 31.9424 45.71 31.4011 45.4443L3.24893 29.4991C1.62477 28.7018 0.541992 29.4991 0.541992 31.6251V54.7456C0.541992 56.6059 1.89546 58.9977 3.24893 59.795L67.1326 95.9374C68.7568 96.7347 69.8395 95.9374 69.8395 93.8114V66.173C69.8395 64.3128 68.7568 62.1867 67.1326 61.3895Z" fill="#2B215F"/>
<path d="M68.2148 97.0004C67.6734 97.0004 67.4027 97.0004 66.8613 96.7347L2.97763 60.3264C1.35347 59.5292 0 56.8716 0 54.7456V31.6251C0 30.2963 0.541387 29.499 1.35347 28.9675C1.89485 28.7018 2.70693 28.7018 3.51902 29.2333L31.6711 45.1785C31.6711 43.8497 32.2125 43.0525 32.7539 42.521C33.2953 42.2552 34.3781 42.2552 35.1902 42.7867L67.4027 61.1237C69.0268 62.1867 70.3803 64.5785 70.3803 66.7045V94.6086C70.3803 95.9374 69.8389 96.7347 69.0268 97.2662C69.0268 97.0004 68.4855 97.0004 68.2148 97.0004ZM2.16555 29.7648C1.89485 29.7648 1.89485 29.7648 1.62416 29.7648C1.08277 30.0305 1.08277 30.5621 1.08277 31.3593V54.4799C1.08277 56.3401 2.16555 58.4662 3.51902 58.9977L67.4027 95.6716C67.6734 95.9374 68.2148 95.9374 68.4855 95.9374C69.0268 95.6716 69.0268 95.1401 69.0268 94.3429V66.173C69.0268 64.5785 67.9441 62.4525 66.5906 61.6552L34.3781 43.3182C34.1074 43.0525 33.566 43.0525 33.2953 43.0525C33.0246 43.3182 32.7539 43.8497 32.7539 44.647C32.7539 45.1785 32.4832 45.71 32.2125 45.71C31.9418 45.9758 31.4004 45.9758 31.1298 45.71L2.97763 29.7648C2.70693 30.0305 2.43624 29.7648 2.16555 29.7648Z" fill="white"/>
<path d="M67.1326 61.3891L34.9201 43.0521C34.6494 42.7863 34.108 42.7863 33.8373 42.7863C32.7545 42.7863 32.2131 43.5836 32.2131 45.1781C32.2131 45.7096 31.9424 45.9754 31.6717 45.9754H31.4011L3.24893 30.0302C2.97823 29.4987 2.43685 29.2329 2.16615 29.2329C1.08338 29.2329 0.541992 30.0302 0.541992 31.6247V54.7452C0.541992 56.6055 1.89546 58.9973 3.24893 59.7946L67.1326 95.937C67.4033 96.2028 67.9447 96.2028 68.2154 96.2028C69.2981 96.2028 69.8395 95.4055 69.8395 93.811V66.1726C69.8395 64.3124 68.7568 62.1863 67.1326 61.3891Z" fill="#2B215F"/>
<path d="M68.2148 96.9998C67.6734 96.9998 67.4027 96.9998 66.8613 96.7341L2.97763 60.3258C1.35347 59.5286 0 56.871 0 54.745V31.6245C0 30.8272 0.270694 30.0299 0.541387 29.4984C0.812081 28.9669 1.62416 28.7012 2.16555 28.7012C2.70693 28.7012 2.97763 28.7012 3.51902 28.9669L31.6711 44.9121C31.6711 43.0519 32.7539 41.9888 33.8367 41.9888C34.3781 41.9888 34.6488 41.9888 35.1902 42.2546L67.4027 60.5916C69.0268 61.6546 70.3803 64.0464 70.3803 66.1724V94.0765C70.3803 96.2025 69.2975 96.9998 68.2148 96.9998ZM2.16555 29.7642C1.89485 29.7642 1.62416 29.7642 1.35347 30.0299C1.08277 30.2957 1.08277 30.8272 1.08277 31.3587V54.4793C1.08277 56.3395 2.16555 58.4656 3.51902 58.9971L67.4027 95.671C67.6734 95.9368 67.9441 95.9368 68.2148 95.9368C68.7561 95.9368 69.2975 95.1395 69.2975 94.0765V66.1724C69.2975 64.5779 68.2148 62.4519 66.8613 61.6546L34.6488 43.3176C34.3781 43.0519 34.1074 43.0519 33.8367 43.0519C33.0246 43.0519 32.7539 44.1149 32.7539 44.9121C32.7539 45.7094 32.2125 46.2409 31.6711 46.2409C31.4004 46.2409 31.1298 46.2409 31.1298 45.9751L2.97763 30.0299C2.70693 30.0299 2.43624 29.7642 2.16555 29.7642Z" fill="white"/>
<path d="M24.3635 49.164L5.1443 38.2681C4.60291 38.0023 4.06152 36.9393 4.06152 36.1421C4.06152 35.3448 4.60291 34.8133 5.1443 35.3448L24.3635 46.2407C24.9049 46.5064 25.4463 47.5695 25.4463 48.3667C25.4463 49.164 24.9049 49.6955 24.3635 49.164Z" fill="#2B215F"/>
<path d="M24.9043 49.9615C24.6336 49.9615 24.3629 49.9615 24.0922 49.6958L4.873 38.7999C4.06092 38.2684 3.51953 37.2054 3.51953 36.1423C3.51953 35.6108 3.79022 35.0793 4.33161 34.8136C4.60231 34.5478 5.14369 34.5478 5.41439 34.8136L24.6336 45.7095C25.4457 46.241 25.9871 47.304 25.9871 48.367C25.9871 48.8985 25.7164 49.43 25.175 49.6958C25.175 49.9615 24.9043 49.9615 24.9043 49.9615ZM4.60231 35.6108C4.60231 35.6108 4.60231 35.8766 4.60231 36.1423C4.60231 36.6738 5.14369 37.4711 5.41439 37.7369L24.6336 48.6328H24.9043C24.9043 48.6328 24.9043 48.367 24.9043 48.1013C24.9043 47.5697 24.3629 46.7725 24.0922 46.5067L4.60231 35.6108C4.873 35.8766 4.873 35.6108 4.60231 35.6108Z" fill="white"/>
<path d="M24.3635 55.2763L5.1443 44.3804C4.60291 44.1146 4.06152 43.0516 4.06152 42.2544C4.06152 41.4571 4.60291 40.9256 5.1443 41.4571L24.3635 52.0872C24.9049 52.353 25.4463 53.416 25.4463 54.2133C25.4463 55.2763 24.9049 55.542 24.3635 55.2763Z" fill="#2B215F"/>
<path d="M24.3635 61.123L5.1443 50.2271C4.60291 49.9613 4.06152 48.8983 4.06152 48.1011C4.06152 47.3038 4.60291 46.7723 5.1443 47.3038L24.3635 58.1997C24.9049 58.4654 25.4463 59.5285 25.4463 60.3257C25.4463 61.123 24.9049 61.6545 24.3635 61.123Z" fill="#2B215F"/>
<path d="M24.9043 58.7403C24.6336 58.7403 24.3629 58.7403 24.0922 58.4746L4.873 47.5787C4.06092 47.0472 3.51953 45.9842 3.51953 44.9211C3.51953 44.3896 3.79022 43.8581 4.33161 43.5924C4.60231 43.3266 5.14369 43.3266 5.68508 43.5924L24.9043 54.4883C25.7164 55.0198 26.2578 56.0828 26.2578 57.1458C26.2578 57.6773 25.9871 58.2088 25.4457 58.4746C25.175 58.7403 24.9043 58.7403 24.9043 58.7403ZM4.60231 44.6554C4.60231 44.6554 4.60231 44.9212 4.60231 45.1869C4.60231 45.7184 5.14369 46.5157 5.41439 46.7814L24.6336 57.6773H24.9043C24.9043 57.6773 24.9043 57.4116 24.9043 57.1458C24.9043 56.6143 24.3629 55.817 24.0922 55.5513L4.60231 44.6554C4.873 44.6554 4.873 44.6554 4.60231 44.6554Z" fill="white"/>
<path d="M24.3635 67.2358L5.1443 56.3399C4.60291 56.0741 4.06152 55.0111 4.06152 54.2138C4.06152 53.4166 4.60291 52.8851 5.1443 53.4166L24.3635 64.0467C24.9049 64.3125 25.4463 65.3755 25.4463 66.1728C25.4463 67.2358 24.9049 67.5015 24.3635 67.2358Z" fill="#2B215F"/>
<path d="M24.9043 67.7672C24.6336 67.7672 24.3629 67.7672 24.0922 67.5014L4.873 56.6055C4.06092 56.074 3.51953 55.011 3.51953 53.948C3.51953 53.4165 3.79022 52.885 4.33161 52.6192C4.60231 52.3535 5.14369 52.3535 5.68508 52.6192L24.9043 63.5151C25.7164 64.0466 26.2578 65.1096 26.2578 66.1727C26.2578 66.7042 25.9871 67.2357 25.4457 67.5014C25.175 67.7672 24.9043 67.7672 24.9043 67.7672ZM4.60231 53.6823C4.60231 53.6823 4.60231 53.948 4.60231 54.2138C4.60231 54.7453 5.14369 55.5425 5.41439 55.8083L24.6336 66.7042H24.9043C24.9043 66.7042 24.9043 66.4384 24.9043 66.1727C24.9043 65.6411 24.3629 64.8439 24.0922 64.5781L4.60231 53.6823C4.873 53.6823 4.873 53.6823 4.60231 53.6823Z" fill="white"/>
<path d="M117.751 32.4219L85.5388 14.3507C84.9974 14.085 84.456 14.085 83.9146 14.085H83.6439L80.6663 15.9452L33.2949 42.7863C33.8363 42.5206 34.3777 42.5206 35.1898 42.7863L67.4023 61.1233C68.7558 61.9206 70.1092 64.3124 70.1092 66.1726V94.0767C70.1092 95.1398 69.8385 95.937 69.0265 96.2028C69.0265 96.2028 119.105 67.7671 119.646 67.5014C120.188 67.2356 120.458 66.4384 120.458 65.3754V37.4713C120.458 35.611 119.375 33.485 117.751 32.4219Z" fill="#2B215F"/>
<path d="M69.0267 96.7343C68.756 96.7343 68.756 96.7343 68.756 96.4685C68.756 96.4685 68.4853 96.2028 68.4853 95.937C68.4853 95.6713 68.4853 95.6713 68.756 95.4055C68.5665 94.6147 68.756 94.6169 68.756 93.8196V66.7868C68.756 65.1923 67.4999 62.8136 66.1465 62.0163L34.6865 43.7295C33.8798 42.9344 33.8365 43.0521 33.5658 43.0521C33.2951 43.3179 33.0244 43.0521 32.7537 42.7863C32.483 42.5206 32.7537 42.2548 33.0244 41.9891L83.6441 13.5535C84.4562 13.2877 85.2683 13.2877 85.8097 13.8192L118.022 32.1562C119.646 33.2192 121 35.611 121 37.737V65.6411C121 66.9699 120.458 67.7672 119.646 68.2987C119.105 68.5644 69.568 96.7343 69.0267 97C69.0267 96.7343 69.0267 96.7343 69.0267 96.7343ZM35.19 42.5206L67.6732 60.8576C69.2974 61.9206 70.6508 64.3124 70.6508 66.4384V94.3425C70.6508 94.6083 70.6508 94.3489 70.6508 94.6147C79.5837 89.5654 118.038 67.8477 118.58 67.5819C119.121 67.3162 119.646 66.4384 119.646 65.6411L119.386 37.3688C119.386 35.7743 118.32 34.1906 116.966 33.3934L85.2683 14.8822C84.9976 14.6165 84.4562 14.6165 84.1855 14.6165L80.9372 16.4768L35.19 42.5206Z" fill="white"/>
<path d="M80.6665 15.9452L53.8679 0.797219C53.3265 0.531465 52.5144 0.265712 51.973 0.531465C51.7023 1.06297 1.62402 29.4986 1.62402 29.4986C2.16541 29.2328 2.7068 29.2328 3.24818 29.4986L31.4003 45.4438C31.9417 45.7095 32.2124 45.4438 32.2124 44.9123C32.2124 43.8493 32.4831 43.052 33.0245 42.7863L80.6665 15.9452Z" fill="#2B215F"/>
<path d="M31.9419 46.2411C31.6712 46.2411 31.4005 46.2411 31.4005 45.9753L3.24837 30.0301C2.97768 29.7644 2.43629 29.7644 2.1656 29.7644C1.8949 29.7644 1.8949 29.7644 1.62421 29.7644C1.35352 29.7644 1.35352 29.4986 1.35352 29.2329C1.35352 29.2329 1.35352 28.9671 1.62421 28.7014C1.62421 28.7014 1.8949 28.7014 1.8949 28.4356C2.70698 27.9041 4.87253 26.8411 9.47432 24.1836L26.7987 14.3507C39.2506 7.17534 51.9732 0 52.2439 0C52.5146 0 53.3267 0 54.1388 0.265753L80.9374 15.4137C81.2081 15.6795 81.2081 15.9452 81.2081 15.9452C81.2081 15.9452 81.2081 16.211 80.9374 16.4767L33.566 43.3178C33.2954 43.5836 33.0247 44.1151 33.0247 44.9123C33.0247 45.4438 32.754 45.9753 32.4833 45.9753C32.2126 46.2411 31.9419 46.2411 31.9419 46.2411ZM4.03338 28.7014L31.9419 44.5246C31.9419 43.4616 32.4833 42.7863 33.0247 42.2548L79.0534 15.9452L53.24 1.59016C52.9694 1.32441 51.8974 2.38525 51.6267 2.38525C50.8146 2.91675 12.4249 23.9178 4.03338 28.7014Z" fill="white"/>
<path d="M58.2883 73.8836H58.2884L58.2882 73.8792C58.1521 70.8067 57.2001 67.5369 55.7051 64.7017C54.2117 61.8693 52.1718 59.4619 49.8516 58.1203C48.751 57.3114 47.6482 57.0411 46.5485 57.0411C45.0267 57.0411 43.7116 57.7216 42.78 58.975C41.8501 60.226 41.3053 62.0427 41.3053 64.3165C41.3053 67.3921 42.2583 70.6637 43.7873 73.4992C45.315 76.332 47.4225 78.7386 49.742 80.0797C50.8426 80.8887 51.9453 81.1589 53.0451 81.1589C54.5669 81.1589 55.8819 80.4785 56.8135 79.2251C57.7434 77.974 58.2883 76.1573 58.2883 73.8836ZM53.0451 79.6302C52.2568 79.6302 51.4621 79.3729 50.3856 78.8448C48.378 77.661 46.4956 75.4202 45.1142 72.8071C43.7325 70.1934 42.8587 67.2197 42.8587 64.5822C42.8587 62.8661 43.1952 61.4238 43.7922 60.4143C44.3878 59.4074 45.2383 58.8356 46.2778 58.8356C47.0661 58.8356 47.8608 59.0929 48.9372 59.621C50.9448 60.8048 52.8273 63.0456 54.2086 65.6587C55.5903 68.2724 56.4641 71.2461 56.4641 73.8836C56.4641 75.5997 56.1277 77.042 55.5306 78.0515C54.9351 79.0584 54.0846 79.6302 53.0451 79.6302Z" fill="white" stroke="white" stroke-width="0.2"/>
</g>
<defs>
<clipPath id="clip0">
<rect width="121" height="97" fill="white"/>
</clipPath>
</defs>
</svg>
